<?xml version="1.0" encoding="UTF-8" standalone="no"?>
<!-- Created with Inkscape (http://www.inkscape.org/) -->

<svg
   xmlns:dc="http://purl.org/dc/elements/1.1/"
   xmlns:cc="http://creativecommons.org/ns#"
   xmlns:rdf="http://www.w3.org/1999/02/22-rdf-syntax-ns#"
   xmlns:svg="http://www.w3.org/2000/svg"
   xmlns="http://www.w3.org/2000/svg"
   xmlns:sodipodi="http://sodipodi.sourceforge.net/DTD/sodipodi-0.dtd"
   xmlns:inkscape="http://www.inkscape.org/namespaces/inkscape"
   width="744.09448819"
   height="1052.3622047"
   id="svg3108"
   version="1.1"
   inkscape:version="0.48.0 r9654"
   sodipodi:docname="dandelion.svg">
  <defs
     id="defs3110" />
  <sodipodi:namedview
     id="base"
     pagecolor="#ffffff"
     bordercolor="#666666"
     borderopacity="1.0"
     inkscape:pageopacity="0.0"
     inkscape:pageshadow="2"
     inkscape:zoom="0.35"
     inkscape:cx="375"
     inkscape:cy="520"
     inkscape:document-units="px"
     inkscape:current-layer="layer1"
     showgrid="false"
     inkscape:window-width="1366"
     inkscape:window-height="716"
     inkscape:window-x="-8"
     inkscape:window-y="-8"
     inkscape:window-maximized="1" />
  <metadata
     id="metadata3113">
    <rdf:RDF>
      <cc:Work
         rdf:about="">
        <dc:format>image/svg+xml</dc:format>
        <dc:type
           rdf:resource="http://purl.org/dc/dcmitype/StillImage" />
        <dc:title></dc:title>
      </cc:Work>
    </rdf:RDF>
  </metadata>
  <g
     inkscape:label="Layer 1"
     inkscape:groupmode="layer"
     id="layer1">
    <rect
       style="fill:#000000"
       id="rect3116"
       width="1048.5714"
       height="1277.1428"
       x="-137.14285"
       y="-101.92353" />
    <path
       style="fill:#ffffff"
       d="m 335.60452,1152.6233 c -5.784,-13.4947 -8.38585,-38.1718 -8.35567,-79.2489 0.0567,-77.02576 11.18029,-158.29453 26.46054,-193.31863 6.59741,-15.122 8.73683,-47.02801 12.02538,-179.33966 3.55774,-143.14305 1.53199,-436.99875 -3.0441,-441.57484 -0.68411,-0.68411 -17.87509,-3.04731 -38.20218,-5.25156 -69.16374,-7.50005 -120.54968,-23.54954 -177.57693,-55.46302 -11.11647,-6.22096 -52.155767,-34.61593 -58.237517,-40.29433 -18.50107,-17.27411 -25.13285,-22.15852 -30.08561,-22.15852 -11.46512,0 -13.1008,-16.34337 -2.05594,-20.54262 7.4266,-2.82358 13.79928,0.69586 16.04945,8.86364 1.92054,6.9713 17.4112,21.54358 42.353377,39.84241 50.55876,37.0924 114.67971,64.11739 177.13088,74.65511 47.21711,7.96722 50.97856,7.23807 26.1668,-5.07233 -25.20424,-12.50514 -63.48158,-35.90995 -82.86783,-50.66981 -6.23711,-4.74869 -14.36579,-10.90466 -18.06373,-13.67992 C 186.95859,146.59823 136.57622,96.970493 109.71622,63.396523 100.23552,51.546013 91.202813,40.501466 89.643533,38.853086 c -1.55928,-1.64838 -2.83505,-3.78996 -2.83505,-4.75906 0,-0.9691 -4.08248,-3.36564 -9.07217,-5.32565 -7.11108,-2.79331 -9.07216,-4.75277 -9.07216,-9.06468 0,-6.50545 6.43282,-13.0081981 12.8683,-13.0081981 5.85969,0 12.08015,6.8546081 12.08015,13.3116581 0,6.75447 4.34924,12.8105 35.232927,49.059477 27.43223,32.197897 66.91954,69.462637 106.51964,100.524067 7.6966,6.03705 46.4227,32.15634 47.67702,32.15634 0.8358,0 4.4298,2.07222 7.98668,4.60492 8.30688,5.91502 45.91924,24.98052 47.05024,23.84952 0.47298,-0.47296 -5.09365,-6.8909 -12.3703,-14.26211 -15.68113,-15.88488 -26.59013,-27.84832 -44.99755,-49.34697 -7.47644,-8.73196 -14.17558,-16.3866 -14.88699,-17.01031 -6.59156,-5.77895 -66.779,-85.956507 -78.11758,-104.062877 -1.26371,-2.01799 -9.68381,-14.753527 -18.71134,-28.301197 -9.02752,-13.5476581 -16.41368,-25.1118081 -16.41368,-25.6981081 0,-4.1570199 -17.05619,-25.6491509 -20.3552,-25.6491509 -9.84599,0 -11.69755,-15.396448 -2.44693,-20.347228 6.69124,-3.581045 15.998,0.800194 15.998,7.531198 0,6.226883 7.64338,20.333961 24.38145,44.9998809 4.05412,5.97433 7.37113,11.353778 7.37113,11.9543481 0,3.65332 43.96882,65.317267 73.41259,102.957284 35.34126,45.17918 92.86752,109.2361 95.62396,106.47964 0.61926,-0.61927 -2.54824,-9.19246 -7.03891,-19.05157 -4.49068,-9.85908 -10.4916,-23.02872 -13.33538,-29.26583 -2.84381,-6.23711 -7.40366,-16.4433 -10.13302,-22.68041 -2.72936,-6.23711 -5.86919,-13.38144 -6.9774,-15.87629 -4.70011,-10.58114 -14.22375,-32.25905 -16.93894,-38.556697 -11.93937,-27.69254 -37.38489,-87.6986551 -50.97327,-120.206185 -11.11546,-26.591564 -15.24436,-34.548971 -19.77628,-38.113781 -9.47861,-7.455871 -4.53954,-19.721267 7.94141,-19.721267 5.65654,0 7.36342,1.137628 8.49972,5.665032 0.78201,3.115767 0.82492,7.220578 0.0953,9.121803 -0.72956,1.901224 2.80928,13.385464 7.8641,25.520535 5.05481,12.135071 12.60811,30.228708 16.7851,40.2080979 11.23009,26.8301781 41.79036,98.0828651 47.66534,111.1340121 6.5811,14.61973 10.64131,23.79089 30.62495,69.17525 9.06289,20.58248 17.47671,38.4433 18.69741,39.69073 1.44853,1.48026 1.72163,-5.21595 0.78622,-19.27835 -0.78828,-11.85052 -2.42263,-40.42784 -3.63188,-63.50516 -2.44808,-46.719037 -7.77571,-118.209404 -12.45384,-167.115514 -2.55361,-26.696045 -3.93678,-33.330056 -8.13238,-39.004908 -4.8173,-6.515749 -4.87676,-7.110522 -1.26239,-12.626746 7.18295,-10.962559 23.99284,-4.75943 20.62321,7.610305 -2.35187,8.633615 -1.55869,29.054221 3.44386,88.662639 3.97984,47.422337 8.17824,107.287584 12.7832,182.277344 1.0172,16.5643 2.1866,23.44597 3.5655,20.98199 2.63192,-4.70299 18.30023,-48.68691 26.75808,-75.11501 3.59294,-11.2268 9.5216,-29.59793 13.17478,-40.824737 7.49592,-23.03616 22.82665,-73.607407 25.43966,-83.917517 0.94845,-3.74227 5.5059,-20.5675281 10.12762,-37.389458 6.4957,-23.642552 7.84017,-31.486847 5.92292,-34.556849 -5.75191,-9.210269 -0.26806,-19.909365 10.2046,-19.909365 3.76572,0 6.41221,1.877599 8.21095,5.825393 2.23336,4.901711 1.86312,7.329169 -2.33497,15.309279 -2.74406,5.216136 -6.03451,14.586977 -7.31212,20.82409 -1.27759,6.237114 -3.689,15.932992 -5.35866,21.546392 -1.66964,5.6133999 -5.19397,17.8608199 -7.8318,27.216498 C 436.31682,70.149773 416.5097,132.48232 393.91227,197.21096 l -9.89746,28.35051 11.56352,-12.47423 c 16.68485,-17.99892 59.56273,-71.96159 79.88456,-100.53634 25.36793,-35.670127 43.62448,-64.793707 65.64619,-104.7213821 18.2192,-33.0333599 21.61312,-40.2966769 20.35782,-43.5678889 -1.83305,-4.776857 6.13737,-11.999119 13.2421,-11.999119 12.48287,0 14.25328,16.479433 2.22102,20.673898 -4.31261,1.50338 -8.0458,6.00681 -12.48831,15.06492 -3.48523,7.1062699 -11.64655,22.129358 -18.13625,33.384648 -6.48969,11.25529 -12.52732,21.995087 -13.41694,23.866217 -0.88964,1.87114 -4.40767,7.6745 -7.81787,12.89637 -3.41021,5.22187 -9.1982,14.40743 -12.86224,20.41237 -20.04434,32.850487 -67.50825,95.411967 -105.26356,138.746347 -6.6724,7.65835 -11.26518,13.9167 -10.20619,13.90742 1.05899,-0.009 9.95267,-4.60206 19.76371,-10.20619 9.81107,-5.60412 18.29561,-10.18931 18.85457,-10.18931 3.08919,0 57.32808,-37.43216 76.70921,-52.93973 47.31663,-37.85977 121.34021,-119.525684 121.34021,-133.867614 0,-8.55025 8.77585,-13.85143 16.84445,-10.17513 8.41418,3.83376 7.51495,15.30008 -1.53851,19.61784 -3.43224,1.6369 -9.04565,6.59952 -12.47422,11.028037 -36.97688,47.76116 -78.50067,91.057067 -116.72329,121.704657 -27.55879,22.09712 -64.75514,46.86748 -94.48345,62.91979 -12.55982,6.7819 -22.86507,13.03201 -22.90061,13.88915 -0.0739,1.78234 6.57496,0.96457 43.02821,-5.2922 69.59151,-11.94457 130.89049,-38.05254 194.25696,-82.73636 17.71102,-12.48919 25.74304,-20.84713 25.74304,-26.78761 0,-6.88986 4.24123,-10.35052 12.68517,-10.35052 12.17226,0 14.1891,13.79837 2.91614,19.95085 -3.8935,2.12497 -12.31361,8.25683 -18.71134,13.62635 -26.87482,22.5556 -80.26682,54.53167 -112.89103,67.60958 -45.21408,18.12476 -87.77274,28.95858 -133.02633,33.8634 -16.58877,1.79799 -32.79933,3.93115 -36.02346,4.74034 l -5.86202,1.47128 1.42108,33.132 c 0.78161,18.22258 2.06757,95.38971 2.85769,171.48249 1.35842,130.82157 0.3767,190.20225 -5.84806,353.72823 -1.5615,41.02052 -1.36511,53.30101 0.92489,57.83504 7.80308,15.4496 9.18715,30.1953 9.05565,96.47797 -0.11408,57.52906 -0.76904,69.46876 -5.22511,95.25766 -6.11385,35.3831 -12.22223,59.526 -18.93653,74.8454 -9.45236,21.5664 -16.78578,25.0177 -22.89121,10.7732 z m 25.75649,-55.3719 c 6.24823,-19.432 7.8327,-66.4475 2.45851,-72.9502 -3.90062,-4.7198 -6.12455,-3.3226 -11.35812,7.1357 -10.27663,20.536 -15.00736,75.9324 -7.27962,85.2437 2.83285,3.4134 3.44602,3.426 7.07098,0.1454 2.18304,-1.9756 6.28175,-10.7842 9.10825,-19.5746 l 0,0 z"
       id="path3067"
       inkscape:connector-curvature="0"
       inkscape:export-filename="C:\Users\Admin\Desktop\Astriarch\AstriarchHtml5\Stratiscape\dandelion.png"
       inkscape:export-xdpi="90"
       inkscape:export-ydpi="90" />
    <path
       style="fill:#ffffff"
       d="m 335.68989,1153.8739 c -5.79044,-12.3924 -8.46955,-37.8856 -8.45979,-80.4995 0.0159,-72.2025 9.07688,-143.67323 23.7451,-187.30903 7.0216,-20.88821 8.02428,-27.11517 10.12444,-62.87503 5.01723,-85.42979 7.69841,-314.19362 5.15388,-439.74158 -1.34969,-66.595 -3.28978,-121.91758 -4.31128,-122.93909 -1.0215,-1.0215 -18.69242,-3.88613 -39.26871,-6.36584 -20.5763,-2.47972 -46.59702,-6.70295 -57.82382,-9.38495 -70.57695,-16.86033 -135.37174,-50.19527 -187.739767,-96.58645 -5.95791,-5.27791 -13.87619,-10.2647 -17.59619,-11.08176 -12.34841,-2.71215 -14.47439,-17.28977 -3.14945,-21.5955 7.68332,-2.92119 11.83328,-0.66754 16.83898,9.14446 6.6434,13.02213 41.285777,40.78436 77.110347,61.79584 50.30305,29.50325 115.71425,51.18023 166.449,55.16044 13.06703,1.02511 15.26732,0.75503 11.59223,-1.42299 -2.49484,-1.47854 -17.13031,-9.81286 -32.52325,-18.52074 -42.7461,-24.18169 -73.29296,-45.87839 -109.22932,-77.583 -27.70871,-24.4458 -77.06904,-77.737567 -95.413387,-103.012844 -3.03294,-4.17886 -9.34176,-9.55785 -14.0196,-11.95331 -9.61979,-4.92618 -11.34861,-12.32707 -4.35749,-18.65395 8.03386,-7.2705481 20.80079,-1.7701781 20.80079,8.96159 0,9.42977 35.524237,52.015637 77.374787,92.755604 35.20997,34.2756 57.70858,52.67602 94.99634,77.69247 22.05507,14.79679 64.97716,39.10479 69.04965,39.10479 0.97082,0 -8.32523,-10.97165 -20.65788,-24.38144 C 249.53655,134.08005 188.25329,52.808903 145.8079,-18.964792 c -2.81348,-4.75748 -9.07437,-11.149154 -13.91309,-14.203706 -10.6729,-6.737505 -11.8554,-14.728966 -3.03467,-20.508534 8.30297,-5.44031 16.18093,-1.426616 18.18687,9.265908 1.36783,7.291208 28.6518,52.8578519 48.93464,81.72518 4.38233,6.237107 11.78392,16.779797 16.44797,23.428177 17.73743,25.28389 50.90863,67.799897 73.52923,94.243487 26.57724,31.06894 57.15355,63.37835 58.60505,61.92685 0.53212,-0.53211 -10.78889,-27.55575 -25.15777,-60.05254 C 305.03725,124.36326 278.4206,62.749083 260.25803,19.939636 241.47898,-24.322882 224.83086,-60.405281 221.661,-63.713902 c -3.0658,-3.200004 -5.54172,-7.29327 -5.50205,-9.096147 0.13482,-6.126767 6.02294,-11.216101 12.97649,-11.216101 7.57412,0 9.62727,3.058694 9.63969,14.360754 0.004,3.9521 6.52791,23.005225 14.49682,42.340274 41.32899,100.276875 104.86706,244.270852 106.89217,242.245742 0.97741,-0.97744 -6.14063,-123.917567 -10.28316,-177.606564 -5.96797,-77.347759 -9.03307,-101.496013 -13.87763,-109.334683 -4.3941,-7.109817 -4.45808,-7.942599 -1.01386,-13.199129 4.21949,-6.439747 12.76996,-7.428336 18.10503,-2.093267 2.70958,2.709591 3.21567,6.485434 2.2039,16.443299 -0.72233,7.109327 0.32617,33.338419 2.32998,58.286872 4.52885,56.385895 14.93072,208.337682 14.94369,218.298962 0.0136,10.56855 3.27585,9.08872 7.49937,-3.40206 2.00352,-5.92526 10.89109,-32.20619 19.75017,-58.40206 17.26252,-51.044517 35.37721,-110.482214 48.73141,-159.896902 6.6391,-24.566712 7.99287,-32.914915 6.84928,-42.23669 -1.61943,-13.200349 1.89527,-19.000424 11.51371,-19.000424 9.19972,0 11.6155,8.848016 6.01156,22.017718 -2.5437,5.977883 -7.85384,23.116302 -11.80032,38.085376 -11.30036,42.862528 -34.89557,119.669462 -55.70292,181.323812 -10.50246,31.11986 -18.78691,56.89 -18.40989,57.26702 1.06246,1.06246 50.82281,-59.01487 69.87633,-84.36404 43.43206,-57.782897 103.93832,-157.859522 103.93832,-171.912771 0,-6.877583 6.59041,-12.932579 14.07614,-12.932579 12.50979,0 14.16646,15.120142 2.3343,21.304758 -4.27576,2.23493 -10.72952,11.58878 -20.76274,30.0927999 C 517.99008,74.640163 475.72189,136.23047 420.92283,201.18003 c -12.89277,15.28093 -22.74988,27.7835 -21.90469,27.7835 3.31315,0 45.36608,-23.54848 61.72973,-34.56696 37.59764,-25.3164 60.5452,-43.8505 91.28403,-73.72755 45.92112,-44.633687 81.37451,-87.449384 81.37451,-98.272864 0,-2.34073 2.42619,-5.84558 5.39152,-7.78854 7.88494,-5.1664201 17.28889,-0.59484 17.28889,8.40471 0,5.01351 -1.78796,7.57148 -7.75178,11.09022 -4.26346,2.51551 -12.1019,10.390877 -17.41876,17.500827 -15.96229,21.34555 -50.39896,59.733447 -71.65808,79.880047 -38.6667,36.64324 -75.27311,63.73703 -125.43942,92.84249 -15.59278,9.04663 -28.86082,16.98808 -29.48453,17.64772 -1.79439,1.89774 24.85149,-1.45765 49.1902,-6.19427 42.7678,-8.32317 78.45096,-20.54673 118.69499,-40.65999 47.29061,-23.63503 92.93955,-56.77161 92.93955,-67.46488 0,-6.38231 4.44488,-9.82498 12.68517,-9.82498 11.62308,0 14.1424,13.32602 3.75813,19.8787 -3.43042,2.16464 -16.5964,11.71537 -29.25771,21.22381 -73.51489,55.20843 -145.32692,83.51613 -240.79329,94.91866 -19.10795,2.28226 -35.20901,4.61685 -35.78014,5.18796 -0.57112,0.57114 0.001,36.13838 1.27169,79.03836 3.03913,102.61626 2.96591,273.72373 -0.15468,361.53369 -1.37371,38.65439 -2.64948,94.26521 -2.83506,123.57965 -0.29225,46.16475 0.21751,54.96863 3.80882,65.77323 5.35632,16.1148 7.63715,91.53247 4.14979,137.21643 -6.68966,87.6338 -32.19172,157.9345 -46.32182,127.6939 l 0,0 z m 19.83504,-42.5526 c 8.5878,-16.607 14.33069,-67.9723 9.329,-83.4403 -8.37345,-25.8955 -29.59807,52.0756 -21.91722,80.5155 3.07286,11.3778 7.66523,12.4448 12.58822,2.9248 z"
       id="path3069"
       inkscape:connector-curvature="0"
       inkscape:export-filename="C:\Users\Admin\Desktop\Astriarch\AstriarchHtml5\Stratiscape\dandelion.png"
       inkscape:export-xdpi="90"
       inkscape:export-ydpi="90" />
  </g>
</svg>
